<svg xmlns="http://www.w3.org/2000/svg" width="21.82" height="20" viewBox="0 0 21.82 20">
  <path id="icon-cart" d="M20.925,3.641H3.863L3.61.816A.9.9,0,0,0,2.717,0H.9a.9.9,0,1,0,0,1.792h1L2.928,13.275a3.444,3.444,0,0,0,1.291,2.336,2.716,2.716,0,1,0,4.694.747h4.905a2.717,2.717,0,1,0,2.555-1.792H6.365a1.663,1.663,0,0,1-1.53-1.009l14.321-.842a.9.9,0,0,0,.817-.677l1.821-7.283a.9.9,0,0,0-.87-1.114ZM6.358,18.208a.926.926,0,0,1,0-1.85.926.926,0,0,1,0,1.85Zm10.015,0a.926.926,0,1,1,.883-.925.926.926,0,0,1-.883.925Zm2.021-7.243-13.8.81-.57-6.341H19.777l-1.383,5.53Z" transform="translate(-0.001)" fill="#fcfdff"/>
</svg>
